<svg xmlns="http://www.w3.org/2000/svg" width="12.417" height="19.066" viewBox="0 0 12.417 19.066">
  <g id="icon-select" transform="translate(-1100.945 -1085.336)">
    <path id="Path_41" data-name="Path 41" d="M12.32.3l-.2-.2a.334.334,0,0,0-.473,0L6.21,5.539.769.1A.334.334,0,0,0,.3.1L.1.3A.334.334,0,0,0,.1.769L5.971,6.644a.334.334,0,0,0,.473,0L12.317.769A.332.332,0,0,0,12.32.3Z" transform="translate(1113.363 1092.078) rotate(180)" fill="#cfa061"/>
    <path id="Path_42" data-name="Path 42" d="M12.127,192H22.819a.83.83,0,0,1,.586,1.417l-5.344,5.348a.833.833,0,0,1-1.176,0l-5.344-5.348A.83.83,0,0,1,12.127,192Z" transform="translate(1089.65 905.394)" fill="#cfa061"/>
  </g>
</svg>
