<svg xmlns="http://www.w3.org/2000/svg" width="24" height="24" viewBox="0 0 24 24">
  <g id="icon-youtube" transform="translate(-0.167)">
    <circle id="Ellipse_6" data-name="Ellipse 6" cx="12" cy="12" r="12" transform="translate(0.166)" fill="red"/>
    <path id="Path_39" data-name="Path 39" d="M26.316,17.921a2.147,2.147,0,0,0-1.537-1.537A50.474,50.474,0,0,0,17.9,16a50.474,50.474,0,0,0-6.879.384,2.147,2.147,0,0,0-1.537,1.537A21.928,21.928,0,0,0,9.1,22.149a21.928,21.928,0,0,0,.384,4.227,2.147,2.147,0,0,0,1.537,1.537A50.474,50.474,0,0,0,17.9,28.3a50.474,50.474,0,0,0,6.879-.384,2.147,2.147,0,0,0,1.537-1.537,21.928,21.928,0,0,0,.384-4.227A21.928,21.928,0,0,0,26.316,17.921Z" transform="translate(-6.031 -10.135)" fill="#fff"/>
    <path id="Path_40" data-name="Path 40" d="M27.4,30.4l4.573-2.652L27.4,25.1Z" transform="translate(-17.298 -15.738)" fill="red"/>
  </g>
</svg>
