<svg xmlns="http://www.w3.org/2000/svg" width="21" height="24" viewBox="0 0 21 24">
  <path id="icon-cal" d="M18.75,0H2.25A2.307,2.307,0,0,0,0,2.25v19.5A2.307,2.307,0,0,0,2.25,24h16.5A2.307,2.307,0,0,0,21,21.75V2.25A2.307,2.307,0,0,0,18.75,0ZM6,20.4a.645.645,0,0,1-.6.6H3.6a.645.645,0,0,1-.6-.6V18.6a.645.645,0,0,1,.6-.6H5.4a.645.645,0,0,1,.6.6Zm0-6a.645.645,0,0,1-.6.6H3.6a.645.645,0,0,1-.6-.6V12.6a.645.645,0,0,1,.6-.6H5.4a.645.645,0,0,1,.6.6Zm6,6a.645.645,0,0,1-.6.6H9.6a.645.645,0,0,1-.6-.6V18.6a.645.645,0,0,1,.6-.6h1.8a.645.645,0,0,1,.6.6v1.8Zm0-6a.645.645,0,0,1-.6.6H9.6a.645.645,0,0,1-.6-.6V12.6a.645.645,0,0,1,.6-.6h1.8a.645.645,0,0,1,.6.6v1.8Zm6,6a.645.645,0,0,1-.6.6H15.6a.645.645,0,0,1-.6-.6V12.6a.645.645,0,0,1,.6-.6h1.8a.645.645,0,0,1,.6.6Zm0-12a.645.645,0,0,1-.6.6H3.6A.645.645,0,0,1,3,8.4V3.6A.645.645,0,0,1,3.6,3H17.4a.645.645,0,0,1,.6.6Z" fill="#fff"/>
</svg>
