<svg xmlns="http://www.w3.org/2000/svg" width="21.745" height="19.026" viewBox="0 0 21.745 19.026">
  <path id="icon-tel2" d="M10.871,40.834a3.4,3.4,0,1,0,3.4,3.4A3.4,3.4,0,0,0,10.871,40.834Zm0,5.436a2.039,2.039,0,1,1,2.039-2.039A2.039,2.039,0,0,1,10.871,46.27Zm4.86-7.464a2.718,2.718,0,0,0-2.36-1.37h-5a2.718,2.718,0,0,0-2.36,1.37l-4.475,7.83a1.359,1.359,0,0,0-.179.674v2.357a1.359,1.359,0,0,0,1.359,1.359H19.026a1.359,1.359,0,0,0,1.359-1.359V47.31a1.359,1.359,0,0,0-.179-.674Zm3.294,10.862H2.717V47.31L7.192,39.48a1.362,1.362,0,0,1,1.18-.685h5a1.362,1.362,0,0,1,1.18.685l4.475,7.831Zm2.22-14.007a16.529,16.529,0,0,0-20.748,0A1.366,1.366,0,0,0,0,36.726v2.748a.68.68,0,0,0,.68.68H3.656a.679.679,0,0,0,.608-.376L5.435,37.1a13.568,13.568,0,0,1,5.436-1.019A13.571,13.571,0,0,1,16.307,37.1l1.171,2.682a.68.68,0,0,0,.608.376h2.978a.68.68,0,0,0,.68-.68V36.726A1.366,1.366,0,0,0,21.245,35.661ZM20.385,38.8H18.532l-.98-2.243-.212-.491-.491-.212a14.782,14.782,0,0,0-5.978-1.131A14.777,14.777,0,0,0,4.9,35.849l-.491.212-.212.491L3.21,38.8H1.356l-.008-2.074a15.146,15.146,0,0,1,19.037.006Z" transform="translate(0.001 -32)" fill="#fff"/>
</svg>
