<svg id="icon-line" xmlns="http://www.w3.org/2000/svg" width="26" height="25" viewBox="0 0 26 25">
  <ellipse id="Ellipse_5" data-name="Ellipse 5" cx="13" cy="12.5" rx="13" ry="12.5" transform="translate(0)" fill="#00b900"/>
  <path id="Path_34" data-name="Path 34" d="M34.772,25.716c0-4.534-4.323-8.216-9.636-8.216S15.5,21.182,15.5,25.716c0,4.057,3.428,7.453,8.058,8.1.314.071.742.217.85.5a2.167,2.167,0,0,1,.03.913s-.112.714-.136.866c-.043.256-.2,1,.834.546a31.112,31.112,0,0,0,7.571-5.871h0a7.505,7.505,0,0,0,2.065-5.049" transform="translate(-11.866 -14.334)" fill="#fff"/>
  <path id="Path_35" data-name="Path 35" d="M49.938,47.156h-.68a.2.2,0,0,0-.189.2v4.4a.2.2,0,0,0,.189.2h.676a.2.2,0,0,0,.187-.2V47.353a.191.191,0,0,0-.187-.2" transform="translate(-38.626 -37.969)" fill="#00b900"/>
  <path id="Path_36" data-name="Path 36" d="M61.573,47.156h-.665a.191.191,0,0,0-.187.2v2.617l-1.935-2.733a.174.174,0,0,0-.014-.02h0l-.01-.012h-.742a.2.2,0,0,0-.189.2v4.345a.2.2,0,0,0,.189.2h.676a.2.2,0,0,0,.189-.2V49.148l1.925,2.731a.276.276,0,0,0,.049.049h.012a.2.2,0,0,0,.049,0h.676a.2.2,0,0,0,.189-.2V47.353a.2.2,0,0,0-.189-.2" transform="translate(-45.609 -37.969)" fill="#00b900"/>
  <path id="Path_37" data-name="Path 37" d="M33.961,50.852H32.123v-3.5a.191.191,0,0,0-.187-.2h-.678a.2.2,0,0,0-.189.2v4.406h0a.2.2,0,0,0,.053.136h0a.187.187,0,0,0,.13.055h2.708a.2.2,0,0,0,.187-.2v-.71a.191.191,0,0,0-.187-.2" transform="translate(-24.278 -37.969)" fill="#00b900"/>
  <path id="Path_38" data-name="Path 38" d="M83.361,48.26a.2.2,0,0,0,.187-.2v-.7a.191.191,0,0,0-.187-.2h-2.7a.181.181,0,0,0-.13.055h0a.2.2,0,0,0-.051.136h0v4.418h0a.2.2,0,0,0,.051.136h0a.189.189,0,0,0,.13.055h2.7a.2.2,0,0,0,.187-.2v-.71a.191.191,0,0,0-.187-.2H81.525v-.726h1.836a.2.2,0,0,0,.187-.2v-.7a.191.191,0,0,0-.187-.2H81.525V48.26Z" transform="translate(-63.664 -37.969)" fill="#00b900"/>
</svg>
