<svg xmlns="http://www.w3.org/2000/svg" xmlns:xlink="http://www.w3.org/1999/xlink" width="12.433" height="16.577" viewBox="0 0 12.433 16.577">
  <defs>
    <clipPath id="clip-path">
      <rect width="12.433" height="16.577" fill="none"/>
    </clipPath>
  </defs>
  <g id="icon-mask" clip-path="url(#clip-path)">
    <g transform="translate(0 -235.757)">
      <path id="Path_49" data-name="Path 49" d="M6.216,0A6.216,6.216,0,0,0,0,6.216c0,2.3.777,3.022,4.9,9.63a1.555,1.555,0,0,0,2.637,0c4.123-6.611,4.9-7.328,4.9-9.63A6.216,6.216,0,0,0,6.216,0Zm0,15.023C2.091,8.408,1.554,7.99,1.554,6.216a4.662,4.662,0,0,1,9.325,0C10.879,7.983,10.388,8.335,6.216,15.023ZM3.626,6.216a2.59,2.59,0,1,1,2.59,2.59A2.59,2.59,0,0,1,3.626,6.216Z" transform="translate(0 235.757)" fill="#707070"/>
    </g>
  </g>
</svg>
