<svg xmlns="http://www.w3.org/2000/svg" width="21.5" height="21.5" viewBox="0 0 21.5 21.5">
  <path id="icon-mail2" d="M21.5,19.484A2.016,2.016,0,0,1,19.485,21.5H2.016A2.016,2.016,0,0,1,0,19.484V8.429A2.016,2.016,0,0,1,.772,6.842c1.046-.82,1.911-1.485,6.9-5.1C8.374,1.225,9.776-.015,10.75,0c.974-.015,2.377,1.225,3.083,1.74,4.984,3.617,5.85,4.283,6.9,5.1A2.016,2.016,0,0,1,21.5,8.429Zm-2.757-8.256a.336.336,0,0,0-.476-.08c-.959.709-2.329,1.709-4.434,3.237-.707.515-2.108,1.754-3.083,1.74-.975.014-2.375-1.224-3.083-1.74-2.1-1.527-3.474-2.528-4.434-3.237a.336.336,0,0,0-.476.08l-.381.554a.336.336,0,0,0,.077.461c.961.71,2.329,1.709,4.422,3.228.851.621,2.374,2.008,3.874,2,1.5.01,3.022-1.376,3.874-2,2.093-1.519,3.461-2.518,4.422-3.228a.336.336,0,0,0,.077-.461Z" transform="translate(0 0)" fill="#fff"/>
</svg>
