<svg xmlns="http://www.w3.org/2000/svg" width="140.207" height="62.6" viewBox="0 0 140.207 62.6">
  <g id="LOGO" transform="translate(-120.176 -139.15)">
    <g id="Group_3" data-name="Group 3" transform="translate(120.176 139.15)">
      <g id="Group_1" data-name="Group 1" transform="translate(0 1.445)">
        <path id="Path_1" data-name="Path 1" d="M185.968,254.362V228.846h-3.326v23.83Z" transform="translate(-169.422 -211.308)" fill="#cb8919"/>
        <path id="Path_2" data-name="Path 2" d="M155.324,251.037V228.846H152v20.5Z" transform="translate(-145.263 -211.308)" fill="#cb8919"/>
        <path id="Path_3" data-name="Path 3" d="M123.5,247.985V228.846h-3.326v17.33Z" transform="translate(-120.176 -211.308)" fill="#cb8919"/>
        <path id="Path_4" data-name="Path 4" d="M123.5,162.311l11.618-14.023-1.487-2.31-13.457,16.333Z" transform="translate(-120.176 -145.978)" fill="#cb8919"/>
        <path id="Path_5" data-name="Path 5" d="M155.324,179.512l7.856-9.4-1.487-2.31L152,179.512Z" transform="translate(-145.263 -163.179)" fill="#cb8919"/>
        <path id="Path_6" data-name="Path 6" d="M185.968,194.55l4.324-5.368-1.487-2.31-6.164,7.678Z" transform="translate(-169.422 -178.217)" fill="#cb8919"/>
        <path id="Path_7" data-name="Path 7" d="M218.2,211.344l-1.156-1.832-2.176,2.886h3.324Z" transform="translate(-194.825 -196.065)" fill="#cb8919"/>
        <path id="Path_8" data-name="Path 8" d="M218.183,258.193V228.846h-3.324l0,1.924v25.706Z" transform="translate(-194.819 -211.308)" fill="#cb8919"/>
      </g>
      <g id="Group_2" data-name="Group 2" transform="translate(15.536 0)" opacity="0.797">
        <path id="Path_9" data-name="Path 9" d="M208.231,200.066V158.677l-.022-1.847-10.872-17.68-3.753.08,11.31,17.573.01,2.1v42.845Z" transform="translate(-193.584 -139.15)" fill="#fff"/>
        <path id="Path_10" data-name="Path 10" d="M239.9,162.068v34.249l-3.326,1.661V160.443l.006-3.613L225.831,140l-.507-.774,3.753-.08,10.806,17.68Z" transform="translate(-218.606 -139.15)" fill="#fff"/>
        <path id="Path_11" data-name="Path 11" d="M271.659,165.569v27.355l-3.326,1.709V163.86l.01-7.03L257.673,140l-.507-.774,3.753-.08,10.74,17.671Z" transform="translate(-243.709 -139.15)" fill="#fff"/>
        <path id="Path_12" data-name="Path 12" d="M303.407,168.916v20.59l-3.326,1.709v-23.92l.008-10.512L289.506,140,289,139.23l3.753-.08,10.683,17.573Z" transform="translate(-268.805 -139.15)" fill="#fff"/>
      </g>
    </g>
    <g id="Group_4" data-name="Group 4" transform="translate(174.698 182.179)">
      <path id="Path_13" data-name="Path 13" d="M381.526,343.026v.6h-1.538v5.347h-.661v-5.347h-1.538v-.6Z" transform="translate(-377.789 -342.906)" fill="#fff"/>
      <path id="Path_14" data-name="Path 14" d="M398.908,343.026h.661v2.487h2.271v-2.487h.661v5.948h-.661V346.1h-2.271v2.872h-.661Z" transform="translate(-394.438 -342.906)" fill="#fff"/>
      <path id="Path_15" data-name="Path 15" d="M421.619,343.026h2.968v.6H422.28v1.959h2.163v.6H422.28v2.2h2.331v.589h-2.992Z" transform="translate(-412.343 -342.906)" fill="#fff"/>
      <path id="Path_16" data-name="Path 16" d="M457.443,343.026h1.562a3.3,3.3,0,0,1,.733.072,1.325,1.325,0,0,1,.877.577,1.9,1.9,0,0,1,.264,1.009,2.252,2.252,0,0,1-.18.937,1.393,1.393,0,0,1-.661.661,2.7,2.7,0,0,1-.757.144q-.156.012-.348.018t-.433.006h-.4v2.523h-.661Zm1.3,2.836a2.123,2.123,0,0,0,1.07-.192,1.083,1.083,0,0,0,.384-.973.927.927,0,0,0-.408-.889,2.116,2.116,0,0,0-1.009-.18H458.1v2.235Z" transform="translate(-440.585 -342.906)" fill="#fff"/>
      <path id="Path_17" data-name="Path 17" d="M478.278,348.974v-5.948H479.8a2.473,2.473,0,0,1,1.466.336,1.572,1.572,0,0,1,.528,1.358,1.223,1.223,0,0,1-1.141,1.3,2.314,2.314,0,0,1,.475.1.722.722,0,0,1,.3.192.9.9,0,0,1,.18.33,2.741,2.741,0,0,1,.1.5,5.691,5.691,0,0,0,.03.613q.03.276.1.709.024.1.036.15a.349.349,0,0,0,.024.078c.032.1.088.144.168.144v.132h-.769a2.108,2.108,0,0,1-.084-.318q-.036-.186-.066-.39t-.042-.415q-.012-.21-.012-.39a1.22,1.22,0,0,0-.216-.769.941.941,0,0,0-.805-.337h-1.142v2.619Zm1.694-3.208a1.359,1.359,0,0,0,.7-.156,1.007,1.007,0,0,0,.457-.937.935.935,0,0,0-.457-.913,1.98,1.98,0,0,0-.805-.132h-.925v2.139Z" transform="translate(-457.01 -342.906)" fill="#fff"/>
      <path id="Path_18" data-name="Path 18" d="M503.381,342.927a2.19,2.19,0,0,1,.553,1.118,6.347,6.347,0,0,1,.12,1.382q0,.493-.03.883a5.861,5.861,0,0,1-.09.691,2.341,2.341,0,0,1-.565,1.2,1.7,1.7,0,0,1-1.274.469,1.738,1.738,0,0,1-1.286-.469,2.469,2.469,0,0,1-.553-1.2,8.189,8.189,0,0,1-.12-1.574,6.332,6.332,0,0,1,.12-1.382,2.186,2.186,0,0,1,.541-1.118,1.8,1.8,0,0,1,1.31-.469A1.721,1.721,0,0,1,503.381,342.927Zm-2.319.829a4.565,4.565,0,0,0-.24,1.682,5.993,5.993,0,0,0,.216,1.959,1.158,1.158,0,0,0,2.1,0,5.7,5.7,0,0,0,.228-1.959,4.314,4.314,0,0,0-.252-1.682,1.106,1.106,0,0,0-2.055,0Z" transform="translate(-474.243 -342.458)" fill="#fff"/>
      <path id="Path_19" data-name="Path 19" d="M524.039,343.026H525.6a3.294,3.294,0,0,1,.733.072,1.324,1.324,0,0,1,.877.577,1.9,1.9,0,0,1,.264,1.009,2.252,2.252,0,0,1-.18.937,1.394,1.394,0,0,1-.661.661,2.7,2.7,0,0,1-.757.144q-.157.012-.349.018t-.432.006h-.4v2.523h-.661Zm1.3,2.836a2.123,2.123,0,0,0,1.069-.192,1.082,1.082,0,0,0,.384-.973.927.927,0,0,0-.408-.889,2.115,2.115,0,0,0-1.009-.18H524.7v2.235Z" transform="translate(-493.086 -342.906)" fill="#fff"/>
      <path id="Path_20" data-name="Path 20" d="M544.421,343.026h2.968v.6h-2.307v1.959h2.163v.6h-2.163v2.2h2.331v.589h-2.992Z" transform="translate(-509.155 -342.906)" fill="#fff"/>
      <path id="Path_21" data-name="Path 21" d="M563.61,348.974v-5.948h1.526a2.472,2.472,0,0,1,1.466.336,1.572,1.572,0,0,1,.529,1.358,1.222,1.222,0,0,1-1.141,1.3,2.312,2.312,0,0,1,.475.1.722.722,0,0,1,.3.192.9.9,0,0,1,.18.33,2.751,2.751,0,0,1,.1.5,5.627,5.627,0,0,0,.03.613q.03.276.1.709.024.1.036.15a.342.342,0,0,0,.024.078c.032.1.088.144.168.144v.132h-.769a2.1,2.1,0,0,1-.084-.318c-.024-.124-.046-.254-.066-.39s-.034-.275-.042-.415-.012-.27-.012-.39a1.22,1.22,0,0,0-.216-.769.941.941,0,0,0-.805-.337h-1.142v2.619Zm1.694-3.208a1.359,1.359,0,0,0,.7-.156,1.007,1.007,0,0,0,.456-.937.935.935,0,0,0-.456-.913,1.98,1.98,0,0,0-.805-.132h-.925v2.139Z" transform="translate(-524.282 -342.906)" fill="#fff"/>
      <path id="Path_22" data-name="Path 22" d="M587.559,343.026v.6h-1.538v5.347h-.661v-5.347h-1.538v-.6Z" transform="translate(-540.217 -342.906)" fill="#fff"/>
      <path id="Path_23" data-name="Path 23" d="M605.908,343.026h.721l-1.79,3.641v2.307h-.661v-2.307l-1.791-3.641h.733l1.382,2.98Z" transform="translate(-554.853 -342.906)" fill="#fff"/>
      <path id="Path_24" data-name="Path 24" d="M642.429,343.026l1.67,5.948h-.721l-.469-1.718h-1.886l-.433,1.718h-.733l1.694-5.948Zm-1.25,3.641h1.574l-.769-3.161Z" transform="translate(-584.393 -342.906)" fill="#fff"/>
      <path id="Path_25" data-name="Path 25" d="M666.809,343.026v5.948h-1.069l-1.67-4.758a3.252,3.252,0,0,1-.132-.415,4.47,4.47,0,0,1-.084-.487h-.024q0,.2.012.475t.012.439v4.746h-.661v-5.948h1.069l1.682,4.866q.084.241.216.649a.69.69,0,0,0,.012-.132V348.3c0-.088,0-.166-.006-.234s-.006-.13-.006-.186v-4.854Z" transform="translate(-602.789 -342.906)" fill="#fff"/>
      <path id="Path_26" data-name="Path 26" d="M686.145,343.026l1.67,5.948h-.721l-.469-1.718h-1.887l-.433,1.718h-.733l1.694-5.948Zm-1.25,3.641h1.574l-.769-3.161Z" transform="translate(-618.857 -342.906)" fill="#fff"/>
      <path id="Path_27" data-name="Path 27" d="M707.135,343.026h.661v5.359h2.427v.589h-3.088Z" transform="translate(-637.431 -342.906)" fill="#fff"/>
      <path id="Path_28" data-name="Path 28" d="M726.666,343.026h.721l-1.791,3.641v2.307h-.661v-2.307l-1.791-3.641h.733l1.382,2.98Z" transform="translate(-650.053 -342.906)" fill="#fff"/>
      <path id="Path_29" data-name="Path 29" d="M748.049,343.371a.853.853,0,0,0-.721-.313,1,1,0,0,0-.877.361,1.18,1.18,0,0,0-.18.7.8.8,0,0,0,.565.805l.937.36a2.541,2.541,0,0,1,1.094.661,1.593,1.593,0,0,1,.24.937,1.754,1.754,0,0,1-.487,1.316,1.854,1.854,0,0,1-1.352.475,2.053,2.053,0,0,1-.9-.18,1.463,1.463,0,0,1-.733-.769,1.636,1.636,0,0,1-.1-.462q-.024-.282-.024-.619h.649a2.058,2.058,0,0,0,.192,1.045,1.039,1.039,0,0,0,.937.385,1.25,1.25,0,0,0,.841-.258.966.966,0,0,0,.3-.775,1.048,1.048,0,0,0-.252-.817,4.325,4.325,0,0,0-.709-.325q-.3-.12-.595-.228t-.583-.228a1.136,1.136,0,0,1-.565-.565,1.845,1.845,0,0,1-.144-.793,1.761,1.761,0,0,1,.12-.661,1.415,1.415,0,0,1,.342-.511,1.622,1.622,0,0,1,.529-.33,1.814,1.814,0,0,1,.667-.12,1.739,1.739,0,0,1,1.262.421,1.684,1.684,0,0,1,.433,1.262h-.661A1.144,1.144,0,0,0,748.049,343.371Z" transform="translate(-667.688 -342.458)" fill="#fff"/>
      <path id="Path_30" data-name="Path 30" d="M768.724,343.026v.6h-1.538v5.347h-.661v-5.347h-1.538v-.6Z" transform="translate(-683.039 -342.906)" fill="#fff"/>
    </g>
    <g id="Group_5" data-name="Group 5" transform="translate(185.703 152.51)">
      <path id="Path_31" data-name="Path 31" d="M449.864,225.35a15.762,15.762,0,0,1-3.585,1.411,17.465,17.465,0,0,1-4.795.65,11.333,11.333,0,0,1-8.4-3.585,12.084,12.084,0,0,1-2.42-3.9,13.082,13.082,0,0,1-.874-4.795,13.647,13.647,0,0,1,.963-5.22,12.764,12.764,0,0,1,2.6-4.055,11.6,11.6,0,0,1,8.447-3.585,19.2,19.2,0,0,1,4.974.56,21.581,21.581,0,0,1,3.137,1.053l-1.882,4.66a12.394,12.394,0,0,0-3.047-.963,16.97,16.97,0,0,0-3.182-.336,5.933,5.933,0,0,0-2.532.493,5.838,5.838,0,0,0-1.792,1.277,6.273,6.273,0,0,0-1.165,1.725,12.826,12.826,0,0,0-.672,1.815,9.044,9.044,0,0,0-.313,1.568q-.068.7-.068,1.008a9.1,9.1,0,0,0,.47,2.98,7.065,7.065,0,0,0,1.322,2.352,6.033,6.033,0,0,0,2.061,1.546,6.316,6.316,0,0,0,2.689.56,9.5,9.5,0,0,0,3.293-.582,25.037,25.037,0,0,0,2.89-1.255Z" transform="translate(-429.789 -202.273)" fill="#fff"/>
      <path id="Path_32" data-name="Path 32" d="M550.622,229.134H536.283V205.026h14.339v4.839H541.66v4.75h8.066v4.929H541.66v4.75h8.962Z" transform="translate(-513.744 -204.443)" fill="#fff"/>
      <path id="Path_33" data-name="Path 33" d="M629.993,227.411a11.955,11.955,0,0,1-4.839-.941,10.341,10.341,0,0,1-3.63-2.6A11.825,11.825,0,0,1,619.239,220a13.861,13.861,0,0,1-.807-4.772,15.585,15.585,0,0,1,.807-5.086,11.968,11.968,0,0,1,2.352-4.1,11.19,11.19,0,0,1,3.719-2.756,11.637,11.637,0,0,1,4.951-1.008,12.181,12.181,0,0,1,5,.986,11.107,11.107,0,0,1,3.764,2.688,11.658,11.658,0,0,1,2.352,3.966,14.245,14.245,0,0,1,.807,4.817,15.381,15.381,0,0,1-.807,5.063,11.3,11.3,0,0,1-2.352,4.011,10.847,10.847,0,0,1-3.831,2.644A13.275,13.275,0,0,1,629.993,227.411Zm0-4.839a7.818,7.818,0,0,0,2.442-.4,5.872,5.872,0,0,0,2.2-1.3,6.559,6.559,0,0,0,1.568-2.4,10.057,10.057,0,0,0,.6-3.741,9.176,9.176,0,0,0-.582-3.45,6.592,6.592,0,0,0-1.524-2.33,5.863,5.863,0,0,0-2.061-1.3,6.461,6.461,0,0,0-2.2-.4,7.062,7.062,0,0,0-2.4.426,5.716,5.716,0,0,0-2.128,1.367,6.922,6.922,0,0,0-1.524,2.465,10.451,10.451,0,0,0-.582,3.719,9.3,9.3,0,0,0,.56,3.428,6.465,6.465,0,0,0,1.456,2.285,5.343,5.343,0,0,0,1.994,1.255A6.6,6.6,0,0,0,629.993,222.572Z" transform="translate(-578.507 -202.273)" fill="#fff"/>
    </g>
  </g>
</svg>
